<?xml version="1.0" encoding="UTF-8"?><svg id="Layer_2" xmlns="http://www.w3.org/2000/svg" viewBox="0 0 187.35 206.28"><defs><style>.cls-1{fill:#fff;}.cls-2{fill:#c6acd3;}.cls-3{fill:#1f1e28;}</style></defs><g id="Layer_1-2"><g><path class="cls-2" d="M168.24,116.15c1.22,83.46-129.88,83.46-128.65,0-1.22-83.45,129.88-83.45,128.65,0Z"/><polygon class="cls-2" points="39.59 116.15 39.59 0 79.39 64.64 128.44 64.64 168.24 0 168.24 116.15 39.59 116.15"/><g><path class="cls-1" d="M119.05,121.94c1.84,2.54,5.35,3.6,8.21,2.48l2.7,1.32c7.35,1.43,15.23-.42,21.28-4.97,6.06-4.56,10.2-11.77,11.2-19.47l1.49-3.84c-6.5-2.74-13.49-4.51-20.5-4.17s-14.05,2.94-19.11,8c-5.05,5.06-7.85,12.74-6.44,19.89l1.15,.77Z"/><path class="cls-3" d="M116.85,123.23c2.59,3.38,6.93,5.14,11.09,3.66l-1.96-.26c.84,.41,1.67,.83,2.52,1.23,1.75,.82,4.01,.87,5.92,.9,4.62,.08,9.19-.98,13.36-2.93,7.91-3.71,13.75-11.11,16.19-19.42,.49-1.66,.56-3.48,1.18-5.08l1.24-3.2c.54-1.4-.62-2.65-1.78-3.14-9.3-3.89-19.85-5.84-29.69-2.81-9.05,2.79-16.57,9.6-19.08,18.89-.66,2.45-.98,5.06-.81,7.59,.09,1.33,.07,3.31,1.07,4.31,.46,.46,1.12,.81,1.67,1.17,1.14,.77,2.82,.22,3.49-.91,.73-1.25,.23-2.72-.91-3.49l-1.15-.77,1.17,1.52c-1.31-7.01,1.94-14.25,7.26-18.77,5.9-5.01,14-6.5,21.52-5.72,4.87,.5,9.62,2.03,14.12,3.91l-1.78-3.14-1.13,2.91c-.55,1.42-.65,2.94-1.03,4.41-1.06,4.12-3.06,8.02-5.9,11.2s-6.64,5.79-10.84,7.14c-2.19,.7-4.44,1.13-6.73,1.21-1.09,.04-2.17,0-3.26-.09-.39-.04-.95-.2-1.34-.17s-.1,.11-.05,.12c-.12-.03-.22-.12-.33-.16-1.73-.64-2.8-1.8-4.78-1.22-1.66,.49-3.75-.07-4.83-1.48-.84-1.09-2.19-1.67-3.49-.91-1.07,.63-1.76,2.39-.91,3.49Z"/></g><path class="cls-3" d="M129.92,127.38c.41,2.64,.83,5.28,1.24,7.92,.08,.52,.6,1.09,1.03,1.34,.48,.28,1.19,.4,1.73,.23s1.07-.51,1.34-1.03c.3-.57,.33-1.1,.23-1.73-.41-2.64-.83-5.28-1.24-7.92-.08-.52-.6-1.09-1.03-1.34-.48-.28-1.19-.4-1.73-.23s-1.07,.51-1.34,1.03c-.3,.57-.33,1.1-.23,1.73h0Z"/><path class="cls-3" d="M148.51,126.11c1.1,1.55,2.2,3.09,3.29,4.64,.39,.54,.83,.97,1.49,1.15,.6,.16,1.4,.09,1.93-.25s1-.86,1.15-1.49,.13-1.38-.25-1.93c-1.1-1.55-2.2-3.09-3.29-4.64-.39-.54-.83-.97-1.49-1.15-.6-.16-1.4-.09-1.93,.25s-1,.86-1.15,1.49-.13,1.38,.25,1.93h0Z"/><path class="cls-3" d="M162.16,109.09l6.09,.28c1.31,.06,2.56-1.19,2.5-2.5-.06-1.41-1.1-2.43-2.5-2.5l-6.09-.28c-1.31-.06-2.56,1.19-2.5,2.5,.06,1.41,1.1,2.43,2.5,2.5h0Z"/><g><path class="cls-1" d="M79.35,121.68c-6.96,2.48-15.23,.82-20.69-4.15s-7.88-13.05-6.06-20.21l-2.09-8.1c9.09-2.1,19.05-.08,26.6,5.42,7.54,5.49,12.54,14.35,13.33,23.64l-.72,2.06c.93,1.21,.33,3.15-.98,3.94s-3.03,.6-4.39-.09-2.45-1.82-3.5-2.92l-1.5,.42Z"/><path class="cls-3" d="M78.68,119.27c-7.18,2.48-15.68,.35-20.37-5.78-2.27-2.97-3.62-6.68-3.79-10.41-.04-.93-.02-1.88,.07-2.81,.11-1.08,.59-2.22,.47-3.29-.08-.68-.31-1.36-.48-2.02-.55-2.14-1.1-4.27-1.65-6.41l-1.75,3.08c8.72-1.96,18.39,.1,25.4,5.72,3.44,2.76,6.21,6.22,8.22,10.14,1,1.95,1.76,3.99,2.31,6.1,.26,1,.48,2.02,.64,3.04,.07,.42,.13,.84,.16,1.26,0-.02,.12-.4,.08-.16-.02,.15-.12,.35-.17,.49-.21,.59-.47,1.18-.56,1.79-.06,.46,0,.86,.17,1.3,0,.02,.26,.79,.25,.46,0-.17-.07,.28-.22,.41-.33,.27-1.36,.06-1.85-.15-1.19-.52-2.12-1.61-3-2.53-.61-.64-1.59-.88-2.43-.64l-1.5,.42c-3.1,.86-1.78,5.68,1.33,4.82l1.5-.42-2.43-.64c2.46,2.56,5.66,5.08,9.46,4.02,3.29-.92,5.35-4.95,3.34-7.97l.25,1.93c.36-1.03,.83-2.01,.78-3.12-.09-2.13-.6-4.34-1.19-6.38-1.15-3.99-3.01-7.83-5.47-11.17-5.19-7.05-12.77-12.01-21.39-13.72-4.98-.98-10.06-.93-15.01,.18-1.33,.3-2.07,1.82-1.75,3.08,.7,2.7,1.39,5.4,2.09,8.1v-1.33c-1.95,7.98,.5,16.89,6.56,22.52,6.13,5.69,15.35,7.66,23.26,4.93,1.28-.44,2.12-1.71,1.75-3.08-.34-1.24-1.79-2.19-3.08-1.75Z"/></g><path class="cls-3" d="M51.18,96.32c-2.96-.08-5.91-.16-8.87-.23-1.31-.03-2.56,1.17-2.5,2.5s1.1,2.46,2.5,2.5c2.96,.08,5.91,.16,8.87,.23,1.31,.03,2.56-1.17,2.5-2.5s-1.1-2.46-2.5-2.5h0Z"/><path class="cls-3" d="M52.69,112.72c-2.55,1.32-5.1,2.64-7.65,3.96-1.16,.6-1.6,2.33-.9,3.42,.76,1.19,2.18,1.54,3.42,.9,2.55-1.32,5.1-2.64,7.65-3.96,1.16-.6,1.6-2.33,.9-3.42-.76-1.19-2.18-1.54-3.42-.9h0Z"/><path class="cls-3" d="M63.51,123.67l-.93,6.11c-.11,.69-.11,1.3,.25,1.93,.3,.52,.9,1.01,1.49,1.15,.64,.15,1.36,.11,1.93-.25,.51-.33,1.05-.87,1.15-1.49l.93-6.11c.11-.69,.11-1.3-.25-1.93-.3-.52-.9-1.01-1.49-1.15-.64-.15-1.36-.11-1.93,.25-.51,.33-1.05,.87-1.15,1.49h0Z"/><path class="cls-3" d="M136.18,98.42c4.05,.08,6.09,4.6,6.4,8.07,.22,2.51,0,5.04-.22,7.54-.15,1.6-.31,3.55-1.35,4.87s-2.98,1.4-4.44,.74c-1.76-.8-3-2.53-3.81-4.23-1.59-3.36-1.52-7.52-.05-10.91,1.15-2.65,3.33-4.68,5.23-6.81,2.14-2.39-1.38-5.94-3.54-3.54-2.41,2.69-4.94,5.22-6.35,8.61-2.1,5.03-1.93,11,.72,15.8s9.26,8.8,14.51,4.98c2.3-1.67,3.35-4.33,3.77-7.06,.46-2.98,.71-6.09,.57-9.1-.17-3.55-1.07-6.97-3.32-9.78-2-2.5-4.91-4.12-8.14-4.18s-3.22,4.93,0,5Z"/><path class="cls-3" d="M67.72,92.21c-3.26,5.19-4.35,11.6-2.9,17.56,.67,2.76,1.89,5.46,3.56,7.77s3.82,4.73,6.63,5.75c6.56,2.36,10.25-5.26,11-10.45,.89-6.11-.75-12.15-4.62-16.96-1.85-2.31-4.32-4.38-7.01-5.64-1.65-.77-3.56,.29-5.17,.83-3.04,1.01-1.74,5.84,1.33,4.82,1.08-.36,2.16-.72,3.24-1.08l-1.93-.25c7.1,3.57,10.95,11.56,8.85,19.33-.4,1.49-.99,3.31-2.26,4.31-1.18,.94-2.45,.22-3.46-.67-2.88-2.57-4.78-6.11-5.53-9.88-.89-4.45,.18-9.1,2.57-12.91,1.72-2.73-2.61-5.25-4.32-2.52Z"/><path class="cls-3" d="M93.66,142.71c.6,1.67,1.35,3.3,2.31,4.8,.9,1.4,1.94,2.88,3.22,3.96,.95,.8,2.04,1.39,3.32,1.43s2.34-.47,3.24-1.26c1.62-1.43,1.92-3.59,2.01-5.62,.06-1.31-1.19-2.56-2.5-2.5-1.4,.06-2.44,1.1-2.5,2.5-.01,.34-.03,.68-.06,1.02-.05,.58,.06-.28,0-.04-.04,.18-.07,.36-.12,.53l-.04,.15c-.09,.25-.06,.2,.09-.16-.08,.08-.14,.26-.19,.36-.2,.41,.38-.39,.07-.07-.09,.09-.21,.19-.29,.28,.33-.25,.39-.3,.18-.16l-.12,.07c.4-.15,.48-.19,.23-.1l-.13,.03c.45-.04,.54-.06,.27-.04h-.14c.43,.07,.51,.07,.24,.02-.19-.06-.18-.05,.03,.03,.39,.22-.07-.06-.15-.1-.51-.32,.32,.33-.03,0-.21-.21-.43-.41-.63-.63s-.41-.47-.61-.71c-.06-.07-.2-.33-.29-.36,.23,.3,.27,.35,.1,.13l-.09-.13c-.4-.54-.78-1.11-1.13-1.69-.32-.54-.62-1.09-.89-1.65-.07-.14-.13-.28-.2-.42-.04-.09-.09-.19-.13-.29l.13,.31c-.05-.32-.28-.71-.39-1.02-.44-1.23-1.72-2.18-3.08-1.75-1.21,.39-2.22,1.76-1.75,3.08h0Z"/><path class="cls-3" d="M153.87,78.31c-6.75-3.23-10.01-10.48-8.42-17.73,1.8-8.25,7.69-14.68,12.39-21.41,2.63-3.76,4.94-7.76,6.25-12.19h-3.86c2.56,10.83,.25,22.41-6.12,31.52-1.48,2.11,1.99,4.12,3.45,2.02,6.97-9.97,9.32-22.78,6.52-34.6-.47-1.98-3.31-1.83-3.86,0-2.48,8.37-8.87,14.67-13.46,21.88s-7.81,16.4-3.96,24.8c1.82,3.97,5.11,7.29,9.04,9.17,2.31,1.11,4.34-2.34,2.02-3.45h0Z"/><path class="cls-3" d="M44.07,70.98c.05,4.32,3.83,7.51,7.97,7.86,4.37,.37,8.25-2.9,10.02-6.66,2.23-4.73,1.57-10.05,.54-15s-2.47-9.77-4.31-14.45c-2.12-5.4-4.72-10.6-7.8-15.52-.96-1.53-3.07-1.12-3.66,.48-3.75,10.3-2.61,22.09,2.94,31.53,1.3,2.22,4.76,.21,3.45-2.02-5.04-8.59-5.94-19.11-2.53-28.45l-3.66,.48c4.52,7.21,8,15,10.29,23.19,1.76,6.3,5.17,17.62-2.2,21.76-2.59,1.45-7.01,.26-7.05-3.2-.03-2.57-4.03-2.58-4,0h0Z"/><path class="cls-3" d="M159.22,113.94l5.18,.73c.42,.06,.78,.07,1.16-.15,.31-.18,.61-.54,.69-.9,.09-.38,.07-.81-.15-1.16-.2-.3-.52-.64-.9-.69l-5.18-.73c-.42-.06-.78-.07-1.16,.15-.31,.18-.61,.54-.69,.9-.09,.38-.07,.81,.15,1.16,.2,.3,.52,.64,.9,.69h0Z"/><path class="cls-3" d="M50.73,102.85l-8.1-.44c-.78-.04-1.53,.72-1.5,1.5,.04,.85,.66,1.45,1.5,1.5l8.1,.44c.78,.04,1.53-.72,1.5-1.5-.04-.85-.66-1.45-1.5-1.5h0Z"/><path class="cls-3" d="M98.44,125.91c1.25-11.4-.62-22.94-5.24-33.42-.78-1.76-3.36-.24-2.59,1.51,4.41,10,6.02,21.06,4.83,31.91-.21,1.92,2.79,1.9,3,0h0Z"/><path class="cls-3" d="M82.98,145.02c-21.88,1.03-43.61,4.93-64.46,11.65-5.92,1.91-11.76,4.04-17.52,6.39-1.76,.72-.99,3.62,.8,2.89,20.1-8.19,41.29-13.76,62.84-16.38,6.1-.74,12.22-1.25,18.35-1.54,1.92-.09,1.93-3.09,0-3h0Z"/><path class="cls-3" d="M84.03,155.15c-12.58,7.16-24.41,15.6-35.3,25.13-1.46,1.27,.67,3.39,2.12,2.12,10.7-9.37,22.33-17.62,34.69-24.66,1.68-.96,.17-3.55-1.51-2.59h0Z"/><path class="cls-3" d="M116.94,147.35c18.58,5.12,36.62,12.13,53.75,20.96,4.89,2.52,9.7,5.19,14.43,7.98,1.67,.99,3.18-1.61,1.51-2.59-16.8-9.94-34.64-18.14-53.13-24.41-5.21-1.77-10.47-3.37-15.77-4.83-1.86-.51-2.66,2.38-.8,2.89h0Z"/><path class="cls-3" d="M115.26,158.99c10.67,10.58,20.05,22.42,27.86,35.25,2.24,3.69,4.36,7.45,6.34,11.29,.89,1.71,3.48,.2,2.59-1.51-7.03-13.56-15.71-26.25-25.79-37.73-2.85-3.24-5.82-6.38-8.88-9.42-1.37-1.36-3.5,.76-2.12,2.12h0Z"/><path class="cls-3" d="M108.05,157.62c1.93,0,1.93-3,0-3s-1.93,3,0,3h0Z"/><path class="cls-3" d="M155.16,74.62c3.53-1.87,4.26-7.11,1.55-9.96-.54-.57-1.58-.59-2.12,0s-.58,1.51,0,2.12c.06,.07,.12,.14,.19,.2,.22,.23-.18-.28-.01-.02,.09,.14,.18,.28,.26,.42,.04,.07,.07,.13,.1,.2,.15,.28-.11-.33-.01-.03,.05,.16,.11,.31,.15,.47,.04,.15,.04,.35,.1,.49-.12-.25-.03-.25-.01-.04,0,.09,.01,.18,.02,.27,0,.15,0,.31,0,.46,0,.09-.01,.18-.02,.27-.02,.33,.07-.36,0-.04s-.14,.65-.26,.97c-.02,.04-.03,.09-.05,.13-.04,.11-.02,.06,.06-.15-.04,.03-.07,.16-.1,.21-.08,.15-.16,.29-.25,.43-.05,.08-.1,.15-.15,.22-.18,.26,.23-.25,.01-.02-.1,.11-.2,.22-.31,.33-.07,.06-.13,.12-.2,.18-.23,.21,.28-.18,.02-.01-.16,.1-.31,.2-.47,.28-.69,.37-.96,1.39-.54,2.05,.46,.71,1.31,.93,2.05,.54h0Z"/><path class="cls-3" d="M51.48,61.3c-.72,.06-1.4,.24-2.02,.63s-1.11,.89-1.52,1.49c-.73,1.08-1,2.55-.6,3.8,.12,.37,.35,.7,.69,.9s.8,.27,1.16,.15c.75-.24,1.3-1.04,1.05-1.85-.05-.15-.08-.3-.11-.46l.05,.4c-.03-.26-.03-.51,0-.77l-.05,.4c.04-.28,.11-.54,.22-.8l-.15,.36c.12-.29,.28-.56,.47-.81l-.23,.3c.17-.22,.37-.41,.59-.59l-.3,.23c.21-.16,.43-.29,.66-.39l-.36,.15c.22-.09,.45-.16,.7-.19l-.4,.05c.05,0,.1-.01,.16-.02,.4-.03,.77-.14,1.06-.44,.26-.26,.46-.69,.44-1.06s-.14-.79-.44-1.06c-.28-.26-.67-.47-1.06-.44h0Z"/><path class="cls-3" d="M73.82,94.57c-3.94,8.71-1.99,19.01,5.14,25.47,1.43,1.29,3.56-.82,2.12-2.12-6.07-5.49-8.07-14.31-4.67-21.83,.79-1.75-1.79-3.27-2.59-1.51h0Z"/><path class="cls-3" d="M135.61,98.21c-.76,4.43-1.51,8.94-.7,13.42,.68,3.74,2.53,7.14,5.57,9.45,.65,.49,1.67,.1,2.05-.54,.46-.77,.1-1.56-.54-2.05-5.91-4.49-4.57-13.18-3.49-19.48,.32-1.89-2.57-2.7-2.89-.8h0Z"/><path class="cls-3" d="M155.91,117.82c1.07,1.15,2.14,2.29,3.21,3.44,.54,.57,1.59,.58,2.12,0,.57-.62,.57-1.51,0-2.12-1.07-1.15-2.14-2.29-3.21-3.44-.54-.57-1.59-.58-2.12,0-.57,.62-.57,1.51,0,2.12h0Z"/></g></g></svg>