<?xml version="1.0" encoding="UTF-8"?><svg id="Layer_2" xmlns="http://www.w3.org/2000/svg" viewBox="0 0 1984.43 1528.25"><defs><style>.cls-1{fill:#1b2128;}.cls-2{fill:#1f2935;}.cls-3{fill:#423c44;}.cls-4{fill:#604c5a;}.cls-5{fill:#161e23;}.cls-6{fill:#303f54;}.cls-7{fill:#2c2130;}.cls-8{fill:#3e2d44;}</style></defs><g id="buildings"><g><polygon class="cls-5" points="1286.17 1265.55 1714.01 1265.55 1714.01 0 1286.17 193.93 1286.17 1265.55"/><polygon class="cls-1" points="908.75 1431.31 467.77 1431.31 467.77 622.8 908.75 746.7 908.75 1431.31"/><polygon class="cls-5" points="688.26 1113.96 247.28 1113.96 247.28 305.45 688.26 429.35 688.26 1113.96"/><polygon class="cls-2" points="798.55 1307.03 357.57 1307.03 357.57 498.52 798.55 622.42 798.55 1307.03"/><g><polygon class="cls-5" points="553.08 1009.35 461.36 980 461.36 836.92 553.08 866.27 553.08 1009.35"/><polygon class="cls-5" points="663.37 1045.12 571.65 1015.77 571.65 872.69 663.37 902.04 663.37 1045.12"/><polygon class="cls-5" points="773.57 1080.69 681.85 1051.34 681.85 908.26 773.57 937.61 773.57 1080.69"/></g><g><polygon class="cls-5" points="553.13 800.09 461.41 770.74 461.41 627.65 553.13 657 553.13 800.09"/><polygon class="cls-5" points="663.42 835.86 571.7 806.51 571.7 663.42 663.42 692.77 663.42 835.86"/><polygon class="cls-5" points="773.62 871.42 681.9 842.07 681.9 698.99 773.62 728.34 773.62 871.42"/></g><polygon class="cls-6" points="440.98 1290.55 0 1290.55 0 210.55 440.98 376.05 440.98 1290.55"/><g><polygon class="cls-3" points="731.4 582.24 553.08 528.93 503.63 514.14 503.63 370.1 731.4 438.2 731.4 582.24"/><polygon class="cls-3" points="553.08 560.05 572.37 565.68 575.58 533.61 553.08 524.64 553.08 560.05"/><polygon class="cls-3" points="650.53 586.42 669.82 592.05 673.03 559.98 650.53 551.01 650.53 586.42"/></g><g><polygon class="cls-5" points="156.06 504.65 64.34 475.3 64.34 332.22 156.06 361.57 156.06 504.65"/><polygon class="cls-5" points="266.35 540.42 174.63 511.07 174.63 367.99 266.35 397.34 266.35 540.42"/><polygon class="cls-5" points="376.55 575.99 284.83 546.64 284.83 403.56 376.55 432.91 376.55 575.99"/><polygon class="cls-5" points="156.1 689.01 64.38 659.66 64.38 516.58 156.1 545.93 156.1 689.01"/><polygon class="cls-5" points="266.4 724.78 174.68 695.43 174.68 552.35 266.4 581.7 266.4 724.78"/><polygon class="cls-5" points="376.59 760.35 284.87 731 284.87 587.91 376.59 617.26 376.59 760.35"/><polygon class="cls-5" points="156.15 873.37 64.43 844.01 64.43 700.93 156.15 730.28 156.15 873.37"/><polygon class="cls-5" points="266.44 909.14 174.72 879.79 174.72 736.7 266.44 766.05 266.44 909.14"/><polygon class="cls-5" points="376.64 944.7 284.92 915.35 284.92 772.27 376.64 801.62 376.64 944.7"/><polygon class="cls-5" points="156.2 1051.43 64.48 1022.08 64.48 879 156.2 908.35 156.2 1051.43"/><polygon class="cls-5" points="266.49 1087.2 174.77 1057.85 174.77 914.77 266.49 944.12 266.49 1087.2"/></g><polygon class="cls-8" points="567.91 1528.25 126.93 1528.25 126.93 533.61 567.91 686.03 567.91 1528.25"/><polygon class="cls-1" points="1472.83 1162.41 1955.19 1162.41 1955.19 198.39 1472.83 346.11 1472.83 1162.41"/><polygon class="cls-2" points="1185.88 1323.52 1626.85 1323.52 1626.85 482.04 1185.88 610.99 1185.88 1323.52"/><g><polygon class="cls-5" points="1425.14 732.49 1516.86 703.14 1516.86 560.05 1425.14 589.4 1425.14 732.49"/><polygon class="cls-5" points="1314.85 768.26 1406.57 738.91 1406.57 595.82 1314.85 625.17 1314.85 768.26"/><polygon class="cls-5" points="1204.65 803.83 1296.37 774.48 1296.37 631.39 1204.65 660.74 1204.65 803.83"/><polygon class="cls-5" points="1425.1 916.84 1516.82 887.49 1516.82 744.41 1425.1 773.76 1425.1 916.84"/><polygon class="cls-5" points="1314.8 952.61 1406.52 923.26 1406.52 780.18 1314.8 809.53 1314.8 952.61"/><polygon class="cls-5" points="1204.61 988.18 1296.33 958.83 1296.33 815.75 1204.61 845.1 1204.61 988.18"/><polygon class="cls-5" points="1425.05 1101.2 1516.77 1071.85 1516.77 928.77 1425.05 958.12 1425.05 1101.2"/><polygon class="cls-5" points="1314.76 1136.97 1406.48 1107.62 1406.48 964.54 1314.76 993.89 1314.76 1136.97"/><polygon class="cls-5" points="1204.56 1172.54 1296.28 1143.19 1296.28 1000.11 1204.56 1029.46 1204.56 1172.54"/></g><polygon class="cls-6" points="1543.45 1356.53 1984.43 1356.53 1984.43 210.55 1543.45 386.16 1543.45 1356.53"/><g><polygon class="cls-5" points="1837.28 491.24 1941.9 461.51 1941.9 316.62 1837.28 346.34 1837.28 491.24"/><polygon class="cls-5" points="1711.46 527.46 1816.09 497.74 1816.09 352.84 1711.46 382.56 1711.46 527.46"/><polygon class="cls-5" points="1585.76 563.48 1690.39 533.76 1690.39 388.86 1585.76 418.58 1585.76 563.48"/><polygon class="cls-5" points="1837.22 677.93 1941.85 648.21 1941.85 503.31 1837.22 533.03 1837.22 677.93"/><polygon class="cls-5" points="1711.41 714.15 1816.04 684.43 1816.04 539.53 1711.41 569.26 1711.41 714.15"/><polygon class="cls-5" points="1585.71 750.17 1690.33 720.45 1690.33 575.55 1585.71 605.27 1585.71 750.17"/><polygon class="cls-5" points="1837.17 864.62 1941.8 834.9 1941.8 690 1837.17 719.72 1837.17 864.62"/><polygon class="cls-5" points="1711.36 900.84 1815.99 871.12 1815.99 726.23 1711.36 755.95 1711.36 900.84"/><polygon class="cls-5" points="1585.65 936.86 1690.28 907.14 1690.28 762.24 1585.65 791.97 1585.65 936.86"/><polygon class="cls-5" points="1837.12 1044.94 1941.74 1015.22 1941.74 870.32 1837.12 900.04 1837.12 1044.94"/><polygon class="cls-5" points="1711.31 1081.16 1815.93 1051.44 1815.93 906.55 1711.31 936.27 1711.31 1081.16"/></g><polygon class="cls-4" points="1416.51 1524.38 1857.49 1524.38 1857.49 529.74 1416.51 682.16 1416.51 1524.38"/><g><polygon class="cls-5" points="293.14 799.98 201.42 770.63 201.42 627.55 293.14 656.9 293.14 799.98"/><polygon class="cls-5" points="403.43 835.76 311.71 806.41 311.71 663.32 403.43 692.67 403.43 835.76"/><polygon class="cls-5" points="513.63 871.32 421.91 841.97 421.91 698.89 513.63 728.24 513.63 871.32"/><polygon class="cls-5" points="293.19 984.34 201.47 954.99 201.47 811.91 293.19 841.26 293.19 984.34"/><polygon class="cls-5" points="403.48 1020.11 311.76 990.76 311.76 847.68 403.48 877.03 403.48 1020.11"/><polygon class="cls-5" points="513.68 1055.68 421.96 1026.33 421.96 883.25 513.68 912.6 513.68 1055.68"/><polygon class="cls-5" points="293.23 1168.7 201.52 1139.35 201.52 996.27 293.23 1025.62 293.23 1168.7"/><polygon class="cls-5" points="403.53 1204.47 311.81 1175.12 311.81 1032.04 403.53 1061.39 403.53 1204.47"/><polygon class="cls-5" points="513.72 1240.04 422 1210.69 422 1067.6 513.72 1096.95 513.72 1240.04"/><polygon class="cls-5" points="293.28 1346.76 201.56 1317.41 201.56 1174.33 293.28 1203.68 293.28 1346.76"/><polygon class="cls-5" points="403.57 1382.53 311.85 1353.18 311.85 1210.1 403.57 1239.45 403.57 1382.53"/></g><polygon class="cls-7" points="532.7 1528.25 440.98 1528.25 440.98 1323.52 532.7 1365.51 532.7 1528.25"/><g><polygon class="cls-5" points="1691.28 809.93 1782.98 780.58 1782.98 637.49 1691.28 666.84 1691.28 809.93"/><polygon class="cls-5" points="1581 845.7 1672.71 816.35 1672.71 673.26 1581 702.61 1581 845.7"/><polygon class="cls-5" points="1470.82 881.27 1562.53 851.91 1562.53 708.83 1470.82 738.18 1470.82 881.27"/><polygon class="cls-5" points="1691.23 994.28 1782.93 964.93 1782.93 821.85 1691.23 851.2 1691.23 994.28"/><polygon class="cls-5" points="1580.95 1030.05 1672.66 1000.7 1672.66 857.62 1580.95 886.97 1580.95 1030.05"/><polygon class="cls-5" points="1470.77 1065.62 1562.48 1036.27 1562.48 893.19 1470.77 922.54 1470.77 1065.62"/><polygon class="cls-5" points="1691.18 1178.64 1782.89 1149.29 1782.89 1006.21 1691.18 1035.56 1691.18 1178.64"/><polygon class="cls-5" points="1580.91 1214.41 1672.61 1185.06 1672.61 1041.98 1580.91 1071.33 1580.91 1214.41"/><polygon class="cls-5" points="1470.73 1249.98 1562.43 1220.63 1562.43 1077.55 1470.73 1106.9 1470.73 1249.98"/><polygon class="cls-5" points="1691.14 1356.7 1782.84 1327.35 1782.84 1184.27 1691.14 1213.62 1691.14 1356.7"/><polygon class="cls-5" points="1580.86 1392.47 1672.57 1363.12 1672.57 1220.04 1580.86 1249.39 1580.86 1392.47"/></g><polygon class="cls-7" points="1451.93 1528.25 1543.65 1528.25 1543.65 1323.52 1451.93 1365.51 1451.93 1528.25"/></g></g></svg>