<?xml version="1.0" encoding="UTF-8"?><svg id="Layer_2" xmlns="http://www.w3.org/2000/svg" viewBox="0 0 1018.37 2296.98"><defs><style>.cls-1{fill:#241b28;}.cls-2{fill:#1d282d;}.cls-3{fill:#3d4a59;}.cls-4{fill:#161e23;}.cls-5{fill:#2c2130;}.cls-6{fill:#c15963;}</style></defs><g id="buildings"><g><polygon class="cls-3" points="0 2296.98 1018.37 2296.98 1018.37 0 0 351.99 0 2296.98"/><g><polygon class="cls-4" points="634.54 615.16 846.35 547.38 846.35 216.95 634.54 284.73 634.54 615.16"/><polygon class="cls-2" points="379.84 697.76 591.65 629.98 591.65 299.56 379.84 367.34 379.84 697.76"/><polygon class="cls-4" points="125.36 779.9 337.17 712.12 337.17 381.7 125.36 449.48 125.36 779.9"/><polygon class="cls-4" points="634.43 1040.9 846.24 973.12 846.24 642.69 634.43 710.47 634.43 1040.9"/><polygon class="cls-4" points="379.73 1123.51 591.54 1055.73 591.54 725.3 379.73 793.08 379.73 1123.51"/><polygon class="cls-6" points="125.25 1205.65 337.06 1137.87 337.06 807.44 125.25 875.22 125.25 1205.65"/><polygon class="cls-4" points="634.32 1466.64 846.14 1398.86 846.14 1068.44 634.32 1136.21 634.32 1466.64"/><polygon class="cls-2" points="379.62 1549.25 591.44 1481.47 591.44 1151.04 379.62 1218.82 379.62 1549.25"/><polygon class="cls-4" points="125.14 1631.39 336.95 1563.61 336.95 1233.18 125.14 1300.96 125.14 1631.39"/></g><polygon class="cls-5" points="619.37 2296.98 861.52 2296.98 861.52 1824.17 619.37 1921.16 619.37 2296.98"/><polygon class="cls-1" points="359.44 1267.8 359.44 1349.32 109.96 1427.39 103.08 1347.59 359.44 1267.8"/><polygon class="cls-1" points="359.44 1416.89 359.44 1498.41 109.96 1576.48 103.08 1496.69 359.44 1416.89"/><polygon class="cls-1" points="337.17 1349.94 337.17 1431.46 87.69 1509.53 80.81 1429.73 337.17 1349.94"/><polygon class="cls-1" points="833.9 259.15 866.06 334.06 667.64 504.24 629.83 433.63 833.9 259.15"/><polygon class="cls-1" points="869.19 424.25 875.78 505.5 633.43 603.49 620.12 524.51 869.19 424.25"/><polygon class="cls-1" points="841.57 359.31 848.16 440.57 605.82 538.56 592.51 459.58 841.57 359.31"/></g></g></svg>