<?xml version="1.0" encoding="UTF-8"?><svg id="Layer_2" xmlns="http://www.w3.org/2000/svg" viewBox="0 0 1018.37 2296.98"><defs><style>.cls-1{fill:#d192a8;}.cls-2{fill:#523d5b;}.cls-3{fill:#241b28;}.cls-4{fill:#7ba553;}.cls-5{fill:#0f7272;}.cls-6{fill:#161e23;}.cls-7{fill:#2c2130;}</style></defs><g id="buildings"><g><polygon class="cls-2" points="1018.37 2296.98 0 2296.98 0 0 1018.37 351.99 1018.37 2296.98"/><g><polygon class="cls-6" points="383.83 615.16 172.02 547.38 172.02 216.95 383.83 284.73 383.83 615.16"/><polygon class="cls-6" points="638.53 697.76 426.72 629.98 426.72 299.56 638.53 367.34 638.53 697.76"/><polygon class="cls-6" points="893.01 779.9 681.2 712.12 681.2 381.7 893.01 449.48 893.01 779.9"/><polygon class="cls-4" points="383.94 1040.9 172.12 973.12 172.12 642.69 383.94 710.47 383.94 1040.9"/><polygon class="cls-5" points="638.64 1123.51 426.82 1055.73 426.82 725.3 638.64 793.08 638.64 1123.51"/><polygon class="cls-6" points="893.12 1205.65 681.31 1137.87 681.31 807.44 893.12 875.22 893.12 1205.65"/><polygon class="cls-6" points="384.04 1466.64 172.23 1398.86 172.23 1068.44 384.04 1136.21 384.04 1466.64"/><polygon class="cls-6" points="638.74 1549.25 426.93 1481.47 426.93 1151.04 638.74 1218.82 638.74 1549.25"/><polygon class="cls-1" points="893.23 1631.39 681.42 1563.61 681.42 1233.18 893.23 1300.96 893.23 1631.39"/><polygon class="cls-6" points="405.63 2136.15 152.15 2068.37 152.15 1737.94 405.63 1805.72 405.63 2136.15"/></g><polygon class="cls-7" points="937.05 2296.98 480.26 2296.98 480.26 1824.17 937.05 1921.16 937.05 2296.98"/><polygon class="cls-3" points="681.42 1678.75 532.62 1733.48 480.26 1824.17 964.56 1937.04 921.15 1824.17 681.42 1678.75"/><polygon class="cls-3" points="404.88 1398.13 404.88 1479.65 654.35 1557.72 661.23 1477.92 404.88 1398.13"/><polygon class="cls-3" points="149.74 926.75 149.74 1008.27 399.22 1086.34 406.1 1006.54 149.74 926.75"/><polygon class="cls-3" points="658.93 645.5 658.93 727.02 908.41 805.1 915.29 725.3 658.93 645.5"/></g></g></svg>