<?xml version="1.0" encoding="UTF-8"?><svg xmlns="http://www.w3.org/2000/svg" viewBox="0 0 714.35 175.28"><defs><style>.d{fill:#9255a2;}.e{fill:#fff;}.f{fill:#d283b7;}</style></defs><g id="a"/><g id="b"><g id="c"><g><path class="e" d="M101.06,112.17H30.26l-19.05,54.17C9.54,171.09,5.04,174.28,0,174.28h0L62.11,.58h7.37l62.11,173.7h0c-5.36,0-10.13-3.39-11.88-8.45l-18.64-53.66Zm-2.63-7.37l-12.11-34.74c-3.68-10.53-7.15-20.53-10.4-30-3.25-9.47-6.45-19.65-9.61-30.53h-1.05c-3.16,10.88-6.36,21.05-9.61,30.53-3.25,9.47-6.71,19.48-10.4,30l-12.37,34.74H98.43Z"/><path class="e" d="M132.59,27.71h64.33v5.12h-58.49v50.81h49.35v5.12h-49.35v59.58h-5.85V27.71Z"/><path class="e" d="M223.74,18.51h-47.27v-6.19h101.61v6.19h-47.27V158.12h-7.07V18.51Z"/><path class="e" d="M268.75,27.71h64.7c0,2.83-2.29,5.12-5.12,5.12h-53.73v48.62h49.35c0,2.83-2.29,5.12-5.12,5.12h-44.23v56.66h60.68c0,2.83-2.29,5.12-5.12,5.12h-61.41V27.71Z"/><path class="e" d="M424.44,150.91l-36.79-61.71h-32.69v68.92h-7.07V12.32h40.2c7.21,0,13.7,.7,19.44,2.1,5.74,1.4,10.64,3.61,14.69,6.63,4.05,3.02,7.18,6.89,9.39,11.6,2.21,4.71,3.31,10.46,3.31,17.23,0,11.64-3.5,20.73-10.49,27.28-7,6.55-16.61,10.42-28.83,11.6l41.53,69.36h0c-5.21,0-10.03-2.74-12.69-7.21Zm-39-67.9c13.55,0,23.93-2.69,31.15-8.06,7.21-5.37,10.82-13.73,10.82-25.07s-3.61-19.58-10.82-24.3c-7.22-4.71-17.6-7.07-31.15-7.07h-30.49V83.01h30.49Z"/><path class="e" d="M449.66,.16h8.42V166.49h81.59v2.25c0,2.83-2.29,5.12-5.12,5.12h-84.89V.16Z"/><path class="e" d="M500.53,71.78h0c1.33,0,2.42,.83,2.42,1.86v72.85c0,1.03-1.08,1.86-2.42,1.86h0c-1.33,0-2.42-.83-2.42-1.86V73.64c0-1.03,1.08-1.86,2.42-1.86Z"/><path class="e" d="M545.51,27.71h64.33v5.12h-58.49v50.81h49.35v5.12h-49.35v59.58h-5.85V27.71Z"/><path class="e" d="M617.68,0h94.01V2.32c0,2.83-2.29,5.12-5.12,5.12h-80.4V78.08h71.71v2.32c0,2.83-2.29,5.12-5.12,5.12h-66.59v82.33h88.17v2.32c0,2.83-2.29,5.12-5.12,5.12h-91.55V0Z"/><g><g><path class="f" d="M500.53,59.67s-27.86-4.1,0-31.95"/><path class="f" d="M500.53,27.71c27.86,27.86,0,31.95,0,31.95"/></g><g><path class="d" d="M500.53,59.67s-27.86-4.1,0-31.95"/><path class="d" d="M500.53,27.71c27.86,27.86,0,31.95,0,31.95"/></g></g></g></g></g></svg>